<svg xmlns="http://www.w3.org/2000/svg" width="24" height="24" viewBox="0 0 24 24" fill="none">
  <defs>
    <linearGradient id="gradient1" x1="0" y1="0" x2="1" y2="1">
      <stop offset="0%" stop-color="#4A90E2" />
      <stop offset="50%" stop-color="#50E3C2" />
      <stop offset="100%" stop-color="#B8E986" />
    </linearGradient>
  </defs>
  <circle cx="12" cy="12" r="10" stroke="url(#gradient1)" stroke-width="2" />
  <path d="M16 8L12 4L8 8M8 16L12 20L16 16" stroke="url(#gradient1)" stroke-width="2" stroke-linecap="round" stroke-linejoin="round" />
  <path d="M16 8H9C7 8 5 10 5 12C5 13 6 13 6 12C6 11 7 10 9 10H16M8 16H15C17 16 19 14 19 12C19 11 18 11 18 12C18 13 17 14 15 14H8" stroke="url(#gradient1)" stroke-width="2" stroke-linecap="round" stroke-linejoin="round" />
</svg>
